<svg xmlns="http://www.w3.org/2000/svg" width="1400" height="900" viewBox="0 0 1400 900">
  <rect width="1400" height="900" fill="#f5f5f7"/>
  <rect x="120" y="90" width="1160" height="700" rx="26" fill="#ffffff" stroke="#d0d0d5" stroke-width="3"/>
  <rect x="120" y="90" width="1160" height="72" rx="26" fill="#ececf0"/>
  <rect x="120" y="134" width="1160" height="28" fill="#ececf0"/>
  <circle cx="165" cy="126" r="13" fill="#ff5f57"/>
  <circle cx="205" cy="126" r="13" fill="#ffbd2e"/>
  <circle cx="245" cy="126" r="13" fill="#28c840"/>
  <text x="700" y="136" text-anchor="middle" font-family="-apple-system,BlinkMacSystemFont,Segoe UI,Arial" font-size="28" font-weight="700" fill="#222">skills/</text>

  <rect x="120" y="162" width="310" height="628" fill="#f7f7fa"/>
  <line x1="430" y1="162" x2="430" y2="790" stroke="#d9d9df" stroke-width="2"/>

  <text x="165" y="220" font-family="-apple-system,BlinkMacSystemFont,Segoe UI,Arial" font-size="24" font-weight="700" fill="#777">Favorites</text>
  <text x="175" y="270" font-family="-apple-system,BlinkMacSystemFont,Segoe UI,Arial" font-size="25" fill="#333">⌂ Projects</text>
  <text x="175" y="320" font-family="-apple-system,BlinkMacSystemFont,Segoe UI,Arial" font-size="25" fill="#333">▣ Desktop</text>
  <text x="175" y="370" font-family="-apple-system,BlinkMacSystemFont,Segoe UI,Arial" font-size="25" fill="#333">☁ Documents</text>

  <text x="480" y="230" font-family="-apple-system,BlinkMacSystemFont,Segoe UI,Arial" font-size="32" font-weight="800" fill="#111">project-agent/</text>

  <g font-family="-apple-system,BlinkMacSystemFont,Segoe UI,Arial" font-size="28" fill="#1f1f1f">
    <text x="520" y="300">▾ 📁 skills/</text>
    <text x="570" y="365">▾ 📁 write-blog-post/</text>
    <text x="625" y="430">📄 SKILL.txt</text>
    <text x="625" y="495">⚙️ run.sh</text>
    <text x="625" y="560">💎 app-icon.png</text>
    <text x="570" y="635">▸ 📁 research-paper/</text>
    <text x="570" y="700">▸ 📁 fix-code/</text>
  </g>

  <rect x="590" y="395" width="520" height="58" rx="14" fill="#eef5ff" stroke="#8ab4ff" stroke-width="2" opacity="0.9"/>
  <text x="625" y="432" font-family="-apple-system,BlinkMacSystemFont,Segoe UI,Arial" font-size="28" fill="#1f1f1f">📄 SKILL.txt</text>

  <rect x="890" y="270" width="260" height="120" rx="20" fill="#111" opacity="0.92"/>
  <text x="1020" y="324" text-anchor="middle" font-family="-apple-system,BlinkMacSystemFont,Segoe UI,Arial" font-size="26" font-weight="800" fill="#fff">instructions</text>
  <text x="1020" y="358" text-anchor="middle" font-family="-apple-system,BlinkMacSystemFont,Segoe UI,Arial" font-size="20" fill="#cfcfcf">for the agent</text>

  <path d="M850 430 C900 430 905 380 930 360" fill="none" stroke="#111" stroke-width="4" stroke-linecap="round"/>
  <polygon points="930,360 914,363 925,376" fill="#111"/>
</svg>
